STARTFONT 2.1
FONT -sun-helmetcondensed-bold-r-semicondensed--17-170-75-75-p-80-adobe-fontspecific
SIZE 17 75 75
FONTBOUNDINGBOX 19 19 -3 -3

STARTPROPERTIES 28
FOUNDRY "sun"
FAMILY_NAME "helmetcondensed"
WEIGHT_NAME "bold"
SLANT "r"
SETWIDTH_NAME "semicondensed"
ADD_STYLE_NAME ""
PIXEL_SIZE 18
POINT_SIZE 170
RESOLUTION_X 75
RESOLUTION_Y 75
SPACING "p"
AVERAGE_WIDTH 80
CHARSET_REGISTRY "adobe"
CHARSET_ENCODING "fontspecific"
COPYRIGHT "© 1999 Sun Microsystems, Inc."
RAW_PIXELSIZE 1000
RAW_POINTSIZE 964
RAW_ASCENT 900
RAW_DESCENT 196
RAW_AVERAGE_WIDTH 4548
FACE_NAME "HelmetCondensedBoldnsedB5"
_XMBDFED_INFO "Edited with xmbdfed 2.4."
WEIGHT 10
X_HEIGHT -1
QUAD_WIDTH 9
DEFAULT_CHAR 4
FONT_DESCENT 3
FONT_ASCENT 16
ENDPROPERTIES

CHARS 210

STARTCHAR char32
ENCODING 32
SWIDTH 25 0
DWIDTH 5 0
BBX 0 0 0 0
BITMAP
ENDCHAR

STARTCHAR char33
ENCODING 33
SWIDTH 20 0
DWIDTH 4 0
BBX 2 13 1 0
BITMAP
C0
C0
C0
C0
C0
C0
C0
C0
C0
C0
00
00
40
ENDCHAR

STARTCHAR char34
ENCODING 34
SWIDTH 30 0
DWIDTH 6 0
BBX 5 4 0 8
BITMAP
D8
48
58
90
ENDCHAR

STARTCHAR char35
ENCODING 35
SWIDTH 45 0
DWIDTH 9 0
BBX 9 13 0 0
BITMAP
1300
1300
1200
1200
7F80
3200
2200
2600
FF00
2400
2400
6400
6400
ENDCHAR

STARTCHAR char36
ENCODING 36
SWIDTH 40 0
DWIDTH 8 0
BBX 8 15 0 -1
BITMAP
18
18
7E
CF
CB
D8
78
3C
1E
1B
D3
D3
56
7E
18
ENDCHAR

STARTCHAR char37
ENCODING 37
SWIDTH 19 0
DWIDTH 14 0
BBX 13 12 0 0
BITMAP
7040
D880
D880
D900
D970
DA98
D598
7598
0998
0998
1098
20F0
ENDCHAR

STARTCHAR char38
ENCODING 38
SWIDTH 50 0
DWIDTH 10 0
BBX 9 12 0 0
BITMAP
3C00
6600
6600
6600
3800
7800
4980
8D80
C780
C300
6700
3D80
ENDCHAR

STARTCHAR char39
ENCODING 39
SWIDTH 15 0
DWIDTH 3 0
BBX 2 4 0 9
BITMAP
40
C0
C0
C0
ENDCHAR

STARTCHAR char40
ENCODING 40
SWIDTH 25 0
DWIDTH 5 0
BBX 4 16 1 -3
BITMAP
20
20
40
40
C0
C0
C0
C0
C0
C0
C0
40
40
60
20
10
ENDCHAR

STARTCHAR char41
ENCODING 41
SWIDTH 25 0
DWIDTH 5 0
BBX 4 16 0 -3
BITMAP
80
40
60
60
30
30
30
30
30
30
30
20
60
40
80
80
ENDCHAR

STARTCHAR char42
ENCODING 42
SWIDTH 30 0
DWIDTH 6 0
BBX 5 4 0 8
BITMAP
20
F8
30
68
ENDCHAR

STARTCHAR char43
ENCODING 43
SWIDTH 45 0
DWIDTH 9 0
BBX 8 8 0 1
BITMAP
18
18
18
FF
18
18
18
18
ENDCHAR

STARTCHAR char44
ENCODING 44
SWIDTH 15 0
DWIDTH 3 0
BBX 2 4 1 -3
BITMAP
C0
40
C0
80
ENDCHAR

STARTCHAR char45
ENCODING 45
SWIDTH 30 0
DWIDTH 6 0
BBX 4 1 0 4
BITMAP
F0
ENDCHAR

STARTCHAR char46
ENCODING 46
SWIDTH 15 0
DWIDTH 3 0
BBX 2 1 1 0
BITMAP
C0
ENDCHAR

STARTCHAR char47
ENCODING 47
SWIDTH 25 0
DWIDTH 5 0
BBX 5 13 0 0
BITMAP
08
10
10
10
30
20
20
20
40
40
40
40
80
ENDCHAR

STARTCHAR char48
ENCODING 48
SWIDTH 40 0
DWIDTH 8 0
BBX 7 12 0 0
BITMAP
3C
64
C6
C6
C6
C6
C2
C2
C2
C6
64
38
ENDCHAR

STARTCHAR char49
ENCODING 49
SWIDTH 40 0
DWIDTH 8 0
BBX 4 12 1 0
BITMAP
30
30
F0
30
30
30
30
30
30
30
30
30
ENDCHAR

STARTCHAR char50
ENCODING 50
SWIDTH 40 0
DWIDTH 8 0
BBX 7 12 0 0
BITMAP
3C
46
46
46
06
0C
08
30
60
40
40
FE
ENDCHAR

STARTCHAR char51
ENCODING 51
SWIDTH 40 0
DWIDTH 8 0
BBX 7 12 0 0
BITMAP
7C
46
C6
06
04
18
06
06
C6
C6
46
3C
ENDCHAR

STARTCHAR char52
ENCODING 52
SWIDTH 40 0
DWIDTH 8 0
BBX 7 12 0 0
BITMAP
0C
1C
1C
2C
2C
4C
4C
8C
FE
04
04
04
ENDCHAR

STARTCHAR char53
ENCODING 53
SWIDTH 40 0
DWIDTH 8 0
BBX 7 12 0 0
BITMAP
7E
40
40
40
7C
44
06
06
06
C6
44
38
ENDCHAR

STARTCHAR char54
ENCODING 54
SWIDTH 40 0
DWIDTH 8 0
BBX 8 12 0 0
BITMAP
3C
66
C0
C0
BC
E6
C3
C3
C3
C3
66
3C
ENDCHAR

STARTCHAR char55
ENCODING 55
SWIDTH 40 0
DWIDTH 8 0
BBX 7 12 0 0
BITMAP
FE
06
04
0C
08
18
10
30
30
20
20
20
ENDCHAR

STARTCHAR char56
ENCODING 56
SWIDTH 40 0
DWIDTH 8 0
BBX 7 12 0 0
BITMAP
7C
C6
C6
C6
64
38
46
C6
C6
C6
C6
7C
ENDCHAR

STARTCHAR char57
ENCODING 57
SWIDTH 40 0
DWIDTH 8 0
BBX 7 12 0 0
BITMAP
7C
44
C6
C6
C6
C6
66
3A
02
C6
44
38
ENDCHAR

STARTCHAR char58
ENCODING 58
SWIDTH 20 0
DWIDTH 4 0
BBX 2 9 1 0
BITMAP
C0
00
00
00
00
00
00
00
C0
ENDCHAR

STARTCHAR char59
ENCODING 59
SWIDTH 20 0
DWIDTH 4 0
BBX 2 12 1 -3
BITMAP
C0
00
00
00
00
00
00
00
C0
40
C0
80
ENDCHAR

STARTCHAR char60
ENCODING 60
SWIDTH 50 0
DWIDTH 10 0
BBX 9 9 0 0
BITMAP
0080
0300
0C00
7000
C000
7000
1C00
0300
0080
ENDCHAR

STARTCHAR char61
ENCODING 61
SWIDTH 45 0
DWIDTH 9 0
BBX 8 4 0 3
BITMAP
FF
00
00
FF
ENDCHAR

STARTCHAR char62
ENCODING 62
SWIDTH 50 0
DWIDTH 10 0
BBX 9 9 0 0
BITMAP
C000
7000
1C00
0300
0080
0300
0C00
7000
C000
ENDCHAR

STARTCHAR char63
ENCODING 63
SWIDTH 40 0
DWIDTH 8 0
BBX 6 12 1 0
BITMAP
78
CC
8C
0C
08
18
30
30
30
00
00
30
ENDCHAR

STARTCHAR char64
ENCODING 64
SWIDTH 44 0
DWIDTH 19 0
BBX 14 13 2 0
BITMAP
07C0
1860
3018
67A8
6CCC
D84C
D84C
D8C8
D990
6EE0
3018
1830
0FC0
ENDCHAR

STARTCHAR char65
ENCODING 65
SWIDTH 45 0
DWIDTH 9 0
BBX 9 12 0 0
BITMAP
1800
1C00
3400
2400
2400
6600
6200
7E00
C300
C100
8100
8180
ENDCHAR

STARTCHAR char66
ENCODING 66
SWIDTH 45 0
DWIDTH 9 0
BBX 8 12 0 0
BITMAP
FE
C3
C3
C3
C6
FC
C3
C3
C3
C3
C3
FE
ENDCHAR

STARTCHAR char67
ENCODING 67
SWIDTH 45 0
DWIDTH 9 0
BBX 8 12 0 0
BITMAP
3C
62
C3
C0
C0
C0
C0
C1
C3
C3
62
3C
ENDCHAR

STARTCHAR char68
ENCODING 68
SWIDTH 45 0
DWIDTH 9 0
BBX 9 13 0 0
BITMAP
8000
FE00
C300
C180
C180
C180
C180
C180
C180
C180
C300
C700
FE00
ENDCHAR

STARTCHAR char69
ENCODING 69
SWIDTH 40 0
DWIDTH 8 0
BBX 8 12 0 0
BITMAP
FE
C0
C0
C0
C0
FE
C0
C0
C0
C0
C0
FF
ENDCHAR

STARTCHAR char70
ENCODING 70
SWIDTH 40 0
DWIDTH 8 0
BBX 7 12 0 0
BITMAP
FE
C0
C0
C0
C0
FE
C0
C0
C0
C0
C0
C0
ENDCHAR

STARTCHAR char71
ENCODING 71
SWIDTH 45 0
DWIDTH 9 0
BBX 8 12 0 0
BITMAP
7C
62
C3
C0
C0
C0
CF
C3
C3
C3
63
3F
ENDCHAR

STARTCHAR char72
ENCODING 72
SWIDTH 45 0
DWIDTH 9 0
BBX 8 12 0 0
BITMAP
C3
C3
C3
C3
C3
FF
C3
C3
C3
C3
C3
C3
ENDCHAR

STARTCHAR char73
ENCODING 73
SWIDTH 15 0
DWIDTH 3 0
BBX 2 12 1 0
BITMAP
C0
C0
C0
C0
C0
C0
C0
C0
C0
C0
C0
C0
ENDCHAR

STARTCHAR char74
ENCODING 74
SWIDTH 35 0
DWIDTH 7 0
BBX 7 12 -1 0
BITMAP
06
06
06
06
06
06
06
06
C6
C6
66
3C
ENDCHAR

STARTCHAR char75
ENCODING 75
SWIDTH 45 0
DWIDTH 9 0
BBX 8 12 0 0
BITMAP
C3
C7
C6
CC
D8
F8
E8
CC
C6
C6
C3
C1
ENDCHAR

STARTCHAR char76
ENCODING 76
SWIDTH 40 0
DWIDTH 8 0
BBX 7 12 0 0
BITMAP
C0
C0
C0
C0
C0
C0
C0
C0
C0
C0
C0
FE
ENDCHAR

STARTCHAR char77
ENCODING 77
SWIDTH 9 0
DWIDTH 12 0
BBX 11 12 0 0
BITMAP
E0E0
E0E0
E1A0
D1A0
D160
D160
DB60
CA60
CA60
CA60
CE60
C460
ENDCHAR

STARTCHAR char78
ENCODING 78
SWIDTH 45 0
DWIDTH 9 0
BBX 8 12 0 0
BITMAP
E3
E3
E3
D3
D3
CB
CB
CB
C7
C7
C7
C3
ENDCHAR

STARTCHAR char79
ENCODING 79
SWIDTH 45 0
DWIDTH 9 0
BBX 8 12 0 0
BITMAP
7E
42
C3
C3
C3
C3
C3
C3
C3
C3
62
3C
ENDCHAR

STARTCHAR char80
ENCODING 80
SWIDTH 40 0
DWIDTH 8 0
BBX 8 12 0 0
BITMAP
FC
C7
C3
C3
C3
FE
F8
C0
C0
C0
C0
C0
ENDCHAR

STARTCHAR char81
ENCODING 81
SWIDTH 45 0
DWIDTH 9 0
BBX 9 12 0 0
BITMAP
7E00
4200
C300
C300
C300
C300
C300
C300
C300
CF00
6200
3D80
ENDCHAR

STARTCHAR char82
ENCODING 82
SWIDTH 45 0
DWIDTH 9 0
BBX 8 12 0 0
BITMAP
FE
C3
C3
C3
C7
FC
C6
C3
C3
C3
C3
C3
ENDCHAR

STARTCHAR char83
ENCODING 83
SWIDTH 45 0
DWIDTH 9 0
BBX 8 12 0 0
BITMAP
3C
C3
C3
C0
60
3C
0E
03
C3
C3
42
3C
ENDCHAR

STARTCHAR char84
ENCODING 84
SWIDTH 40 0
DWIDTH 8 0
BBX 7 12 0 0
BITMAP
FE
18
18
18
18
18
18
18
18
18
18
18
ENDCHAR

STARTCHAR char85
ENCODING 85
SWIDTH 45 0
DWIDTH 9 0
BBX 8 12 0 0
BITMAP
C3
C3
C3
C3
C3
C3
C3
C3
C3
C3
66
3E
ENDCHAR

STARTCHAR char86
ENCODING 86
SWIDTH 45 0
DWIDTH 9 0
BBX 8 12 0 0
BITMAP
C1
C3
C3
43
62
66
64
24
3C
3C
18
18
ENDCHAR

STARTCHAR char87
ENCODING 87
SWIDTH 14 0
DWIDTH 13 0
BBX 13 12 -1 0
BITMAP
C308
4318
4718
6598
6590
2490
24B0
2CB0
38E0
38E0
1860
1860
ENDCHAR

STARTCHAR char88
ENCODING 88
SWIDTH 45 0
DWIDTH 9 0
BBX 8 12 0 0
BITMAP
C3
43
66
2C
3C
18
18
3C
64
66
C2
83
ENDCHAR

STARTCHAR char89
ENCODING 89
SWIDTH 45 0
DWIDTH 9 0
BBX 8 12 0 0
BITMAP
83
C3
46
66
2C
3C
18
18
18
18
18
18
ENDCHAR

STARTCHAR char90
ENCODING 90
SWIDTH 40 0
DWIDTH 8 0
BBX 8 12 0 0
BITMAP
FE
06
04
0C
18
18
30
30
60
40
C0
FF
ENDCHAR

STARTCHAR char91
ENCODING 91
SWIDTH 25 0
DWIDTH 5 0
BBX 3 16 1 -3
BITMAP
E0
C0
C0
C0
C0
C0
C0
C0
C0
C0
C0
C0
C0
C0
C0
E0
ENDCHAR

STARTCHAR char92
ENCODING 92
SWIDTH 25 0
DWIDTH 5 0
BBX 5 13 0 0
BITMAP
80
80
40
40
40
60
20
20
30
10
10
18
08
ENDCHAR

STARTCHAR char93
ENCODING 93
SWIDTH 25 0
DWIDTH 5 0
BBX 3 15 0 -2
BITMAP
E0
60
60
60
60
60
60
60
60
60
60
60
60
60
E0
ENDCHAR

STARTCHAR char94
ENCODING 94
SWIDTH 0 0
DWIDTH 0 0
BBX 6 2 -3 14
BITMAP
70
48
ENDCHAR

STARTCHAR char95
ENCODING 95
SWIDTH 4 0
DWIDTH 11 0
BBX 10 1 0 -2
BITMAP
FFC0
ENDCHAR

STARTCHAR char96
ENCODING 96
SWIDTH 0 0
DWIDTH 0 0
BBX 3 2 -2 10
BITMAP
C0
40
ENDCHAR

STARTCHAR char97
ENCODING 97
SWIDTH 40 0
DWIDTH 8 0
BBX 7 9 0 0
BITMAP
78
CC
0C
0C
74
CC
CC
CC
76
ENDCHAR

STARTCHAR char98
ENCODING 98
SWIDTH 40 0
DWIDTH 8 0
BBX 7 12 0 0
BITMAP
C0
C0
C0
FC
E6
C6
C6
C6
C6
C6
E4
DC
ENDCHAR

STARTCHAR char99
ENCODING 99
SWIDTH 35 0
DWIDTH 7 0
BBX 6 9 0 0
BITMAP
38
44
C4
C0
C0
C0
C4
C4
78
ENDCHAR

STARTCHAR char100
ENCODING 100
SWIDTH 40 0
DWIDTH 8 0
BBX 7 12 0 0
BITMAP
06
06
06
3E
46
C6
C6
C6
C6
C6
E6
7E
ENDCHAR

STARTCHAR char101
ENCODING 101
SWIDTH 35 0
DWIDTH 7 0
BBX 6 9 0 0
BITMAP
78
C4
C4
FC
C0
C0
C4
E4
78
ENDCHAR

STARTCHAR char102
ENCODING 102
SWIDTH 20 0
DWIDTH 4 0
BBX 4 12 0 0
BITMAP
70
60
60
F0
60
60
60
60
60
60
60
60
ENDCHAR

STARTCHAR char103
ENCODING 103
SWIDTH 40 0
DWIDTH 8 0
BBX 7 12 0 -3
BITMAP
3A
46
C6
C6
C6
C6
C6
46
3E
06
C6
7C
ENDCHAR

STARTCHAR char104
ENCODING 104
SWIDTH 40 0
DWIDTH 8 0
BBX 7 12 0 0
BITMAP
C0
C0
C0
FC
C6
C6
C6
C6
C6
C6
C6
C6
ENDCHAR

STARTCHAR char105
ENCODING 105
SWIDTH 15 0
DWIDTH 3 0
BBX 2 12 1 0
BITMAP
C0
00
00
C0
C0
C0
C0
C0
C0
C0
C0
C0
ENDCHAR

STARTCHAR char106
ENCODING 106
SWIDTH 15 0
DWIDTH 3 0
BBX 4 15 -1 -3
BITMAP
30
00
00
30
30
30
30
30
30
30
30
30
30
30
E0
ENDCHAR

STARTCHAR char107
ENCODING 107
SWIDTH 40 0
DWIDTH 8 0
BBX 8 12 0 0
BITMAP
C0
C0
C0
C6
CC
D8
B0
F8
C8
C4
C6
C2
ENDCHAR

STARTCHAR char108
ENCODING 108
SWIDTH 15 0
DWIDTH 3 0
BBX 2 12 1 0
BITMAP
C0
C0
C0
C0
C0
C0
C0
C0
C0
C0
C0
C0
ENDCHAR

STARTCHAR char109
ENCODING 109
SWIDTH 9 0
DWIDTH 12 0
BBX 11 9 0 0
BITMAP
FDC0
C660
C660
C660
C660
C660
C660
C660
C660
ENDCHAR

STARTCHAR char110
ENCODING 110
SWIDTH 40 0
DWIDTH 8 0
BBX 7 9 0 0
BITMAP
FC
C6
C6
C6
C6
C6
C6
C6
C6
ENDCHAR

STARTCHAR char111
ENCODING 111
SWIDTH 40 0
DWIDTH 8 0
BBX 7 9 0 0
BITMAP
38
44
C6
C6
C6
C6
C6
4C
3C
ENDCHAR

STARTCHAR char112
ENCODING 112
SWIDTH 40 0
DWIDTH 8 0
BBX 7 12 0 -3
BITMAP
FC
E6
C6
C6
C6
C6
C6
E4
DC
C0
C0
C0
ENDCHAR

STARTCHAR char113
ENCODING 113
SWIDTH 40 0
DWIDTH 8 0
BBX 7 12 0 -3
BITMAP
7E
C6
C6
C6
C6
C6
C6
46
7E
06
06
06
ENDCHAR

STARTCHAR char114
ENCODING 114
SWIDTH 25 0
DWIDTH 5 0
BBX 4 9 1 0
BITMAP
B0
C0
80
80
80
C0
C0
C0
C0
ENDCHAR

STARTCHAR char115
ENCODING 115
SWIDTH 35 0
DWIDTH 7 0
BBX 6 9 0 0
BITMAP
78
CC
C0
60
38
0C
CC
CC
78
ENDCHAR

STARTCHAR char116
ENCODING 116
SWIDTH 20 0
DWIDTH 4 0
BBX 4 12 0 0
BITMAP
60
60
60
F0
60
60
60
60
60
60
60
70
ENDCHAR

STARTCHAR char117
ENCODING 117
SWIDTH 40 0
DWIDTH 8 0
BBX 7 9 0 0
BITMAP
C6
C6
C6
C6
C6
C6
C6
C6
7E
ENDCHAR

STARTCHAR char118
ENCODING 118
SWIDTH 35 0
DWIDTH 7 0
BBX 7 9 0 0
BITMAP
84
C6
44
4C
68
68
28
30
30
ENDCHAR

STARTCHAR char119
ENCODING 119
SWIDTH 4 0
DWIDTH 11 0
BBX 10 9 0 0
BITMAP
CC40
8CC0
DCC0
D480
5480
5380
5300
7300
2300
ENDCHAR

STARTCHAR char120
ENCODING 120
SWIDTH 40 0
DWIDTH 8 0
BBX 7 9 0 0
BITMAP
C4
4C
28
38
30
38
6C
C4
86
ENDCHAR

STARTCHAR char121
ENCODING 121
SWIDTH 40 0
DWIDTH 8 0
BBX 7 12 0 -3
BITMAP
86
C6
44
4C
6C
28
28
38
10
10
30
E0
ENDCHAR

STARTCHAR char122
ENCODING 122
SWIDTH 30 0
DWIDTH 6 0
BBX 6 9 0 0
BITMAP
FC
0C
18
10
30
20
40
C0
FC
ENDCHAR

STARTCHAR char123
ENCODING 123
SWIDTH 30 0
DWIDTH 6 0
BBX 4 15 1 -3
BITMAP
70
60
60
60
60
60
40
80
40
40
60
60
60
60
30
ENDCHAR

STARTCHAR char124
ENCODING 124
SWIDTH 25 0
DWIDTH 5 0
BBX 2 13 1 0
BITMAP
C0
C0
C0
C0
C0
C0
C0
C0
C0
C0
C0
C0
C0
ENDCHAR

STARTCHAR char125
ENCODING 125
SWIDTH 30 0
DWIDTH 6 0
BBX 4 15 1 -3
BITMAP
C0
60
60
60
60
60
20
10
60
60
60
60
60
60
C0
ENDCHAR

STARTCHAR char126
ENCODING 126
SWIDTH 0 0
DWIDTH 0 0
BBX 6 2 -3 14
BITMAP
04
7C
ENDCHAR

STARTCHAR char128
ENCODING 128
SWIDTH 45 0
DWIDTH 9 0
BBX 9 12 -1 0
BITMAP
1F00
3180
3080
6000
FE00
FE00
6000
6080
6080
7080
3180
1F00
ENDCHAR

STARTCHAR char130
ENCODING 130
SWIDTH 15 0
DWIDTH 3 0
BBX 2 4 1 -3
BITMAP
C0
40
C0
80
ENDCHAR

STARTCHAR char131
ENCODING 131
SWIDTH 0 0
DWIDTH 0 0
BBX 6 2 -3 14
BITMAP
70
48
ENDCHAR

STARTCHAR char132
ENCODING 132
SWIDTH 30 0
DWIDTH 6 0
BBX 5 4 1 -3
BITMAP
D8
D8
D0
90
ENDCHAR

STARTCHAR char133
ENCODING 133
SWIDTH 44 0
DWIDTH 19 0
BBX 14 1 2 0
BITMAP
C30C
ENDCHAR

STARTCHAR char134
ENCODING 134
SWIDTH 40 0
DWIDTH 8 0
BBX 7 15 0 -3
BITMAP
18
18
18
FE
18
18
18
18
18
18
18
18
18
18
18
ENDCHAR

STARTCHAR char135
ENCODING 135
SWIDTH 39 0
DWIDTH 18 0
BBX 0 0 0 0
BITMAP
ENDCHAR

STARTCHAR char136
ENCODING 136
SWIDTH 0 0
DWIDTH 0 0
BBX 4 2 -2 10
BITMAP
60
90
ENDCHAR

STARTCHAR char137
ENCODING 137
SWIDTH 39 0
DWIDTH 18 0
BBX 0 0 0 0
BITMAP
ENDCHAR

STARTCHAR char139
ENCODING 139
SWIDTH 30 0
DWIDTH 6 0
BBX 2 6 2 2
BITMAP
40
40
80
80
C0
40
ENDCHAR

STARTCHAR char140
ENCODING 140
SWIDTH 19 0
DWIDTH 14 0
BBX 13 12 0 0
BITMAP
7FF8
6300
C300
C300
C300
C3F0
C300
C300
C300
C300
6700
3BF8
ENDCHAR

STARTCHAR char142
ENCODING 142
SWIDTH 39 0
DWIDTH 18 0
BBX 0 0 0 0
BITMAP
ENDCHAR

STARTCHAR char144
ENCODING 144
SWIDTH 39 0
DWIDTH 18 0
BBX 0 0 0 0
BITMAP
ENDCHAR

STARTCHAR char145
ENCODING 145
SWIDTH 15 0
DWIDTH 3 0
BBX 2 3 1 9
BITMAP
C0
80
C0
ENDCHAR

STARTCHAR char146
ENCODING 146
SWIDTH 15 0
DWIDTH 3 0
BBX 2 4 1 8
BITMAP
C0
40
C0
80
ENDCHAR

STARTCHAR char147
ENCODING 147
SWIDTH 30 0
DWIDTH 6 0
BBX 5 3 0 9
BITMAP
48
90
D8
ENDCHAR

STARTCHAR char148
ENCODING 148
SWIDTH 30 0
DWIDTH 6 0
BBX 5 4 0 8
BITMAP
D8
48
58
50
ENDCHAR

STARTCHAR char149
ENCODING 149
SWIDTH 30 0
DWIDTH 6 0
BBX 5 5 0 4
BITMAP
70
F8
F8
F8
70
ENDCHAR

STARTCHAR char150
ENCODING 150
SWIDTH 40 0
DWIDTH 8 0
BBX 7 1 0 4
BITMAP
FE
ENDCHAR

STARTCHAR char151
ENCODING 151
SWIDTH 45 0
DWIDTH 9 0
BBX 8 1 0 5
BITMAP
FF
ENDCHAR

STARTCHAR char152
ENCODING 152
SWIDTH 0 0
DWIDTH 0 0
BBX 6 1 -3 11
BITMAP
7C
ENDCHAR

STARTCHAR char153
ENCODING 153
SWIDTH 24 0
DWIDTH 15 0
BBX 14 6 0 5
BITMAP
FD0C
A194
6194
61AC
616C
735C
ENDCHAR

STARTCHAR char154
ENCODING 154
SWIDTH 39 0
DWIDTH 18 0
BBX 0 0 0 0
BITMAP
ENDCHAR

STARTCHAR char155
ENCODING 155
SWIDTH 30 0
DWIDTH 6 0
BBX 2 6 2 2
BITMAP
80
80
40
40
C0
80
ENDCHAR

STARTCHAR char156
ENCODING 156
SWIDTH 9 0
DWIDTH 12 0
BBX 11 9 0 0
BITMAP
7780
CC40
CC40
CFE0
CC00
CC00
CC40
CE40
7B80
ENDCHAR

STARTCHAR char159
ENCODING 159
SWIDTH 45 0
DWIDTH 9 0
BBX 8 16 0 0
BITMAP
60
64
00
83
C3
C2
66
66
2C
3C
18
18
18
18
18
18
ENDCHAR

STARTCHAR char160
ENCODING 160
SWIDTH 25 0
DWIDTH 5 0
BBX 0 0 0 0
BITMAP
ENDCHAR

STARTCHAR char161
ENCODING 161
SWIDTH 20 0
DWIDTH 4 0
BBX 2 12 1 0
BITMAP
80
00
C0
C0
C0
C0
C0
C0
C0
C0
C0
C0
ENDCHAR

STARTCHAR char162
ENCODING 162
SWIDTH 35 0
DWIDTH 7 0
BBX 7 13 0 -2
BITMAP
18
18
7C
7E
DE
D8
D0
D0
D2
56
7C
18
18
ENDCHAR

STARTCHAR char163
ENCODING 163
SWIDTH 45 0
DWIDTH 9 0
BBX 8 12 0 0
BITMAP
3E
E2
C3
C0
40
FC
30
30
30
20
79
CF
ENDCHAR

STARTCHAR char164
ENCODING 164
SWIDTH 0 0
DWIDTH 0 0
BBX 4 2 -1 14
BITMAP
70
40
ENDCHAR

STARTCHAR char165
ENCODING 165
SWIDTH 0 0
DWIDTH 0 0
BBX 6 2 -3 14
BITMAP
C8
78
ENDCHAR

STARTCHAR char166
ENCODING 166
SWIDTH 39 0
DWIDTH 18 0
BBX 0 0 0 0
BITMAP
ENDCHAR

STARTCHAR char167
ENCODING 167
SWIDTH 40 0
DWIDTH 8 0
BBX 7 15 0 -3
BITMAP
7C
C6
60
70
78
CE
C6
C2
72
3C
0C
06
C6
66
3C
ENDCHAR

STARTCHAR char168
ENCODING 168
SWIDTH 0 0
DWIDTH 0 0
BBX 5 1 -2 11
BITMAP
D8
ENDCHAR

STARTCHAR char169
ENCODING 169
SWIDTH 14 0
DWIDTH 13 0
BBX 13 12 0 0
BITMAP
0F00
10C0
2020
4FB0
D890
F018
F018
F018
D890
4F20
2040
1F80
ENDCHAR

STARTCHAR char170
ENCODING 170
SWIDTH 0 0
DWIDTH 0 0
BBX 5 2 -3 14
BITMAP
C0
D8
ENDCHAR

STARTCHAR char171
ENCODING 171
SWIDTH 35 0
DWIDTH 7 0
BBX 6 6 0 2
BITMAP
24
6C
D8
D8
6C
24
ENDCHAR

STARTCHAR char172
ENCODING 172
SWIDTH 9 0
DWIDTH 12 0
BBX 12 5 0 0
BITMAP
FFF0
0030
0030
0030
0030
ENDCHAR

STARTCHAR char173
ENCODING 173
SWIDTH 39 0
DWIDTH 18 0
BBX 0 0 0 0
BITMAP
ENDCHAR

STARTCHAR char174
ENCODING 174
SWIDTH 14 0
DWIDTH 13 0
BBX 13 12 0 0
BITMAP
0F00
1080
2060
5F20
CD90
CD98
CE18
CF18
CD90
5DE0
2040
1F80
ENDCHAR

STARTCHAR char175
ENCODING 175
SWIDTH 39 0
DWIDTH 18 0
BBX 0 0 0 0
BITMAP
ENDCHAR

STARTCHAR char176
ENCODING 176
SWIDTH 25 0
DWIDTH 5 0
BBX 7 6 -1 6
BITMAP
30
4C
C6
C6
48
30
ENDCHAR

STARTCHAR char177
ENCODING 177
SWIDTH 45 0
DWIDTH 9 0
BBX 9 11 0 0
BITMAP
1800
1800
1800
1800
FF80
1800
1800
1800
1800
0000
FF80
ENDCHAR

STARTCHAR char178
ENCODING 178
SWIDTH 39 0
DWIDTH 18 0
BBX 0 0 0 0
BITMAP
ENDCHAR

STARTCHAR char179
ENCODING 179
SWIDTH 39 0
DWIDTH 18 0
BBX 0 0 0 0
BITMAP
ENDCHAR

STARTCHAR char180
ENCODING 180
SWIDTH 0 0
DWIDTH 0 0
BBX 4 2 -1 10
BITMAP
70
C0
ENDCHAR

STARTCHAR char181
ENCODING 181
SWIDTH 39 0
DWIDTH 18 0
BBX 0 0 0 0
BITMAP
ENDCHAR

STARTCHAR char182
ENCODING 182
SWIDTH 14 0
DWIDTH 13 0
BBX 8 15 2 -3
BITMAP
7F
F6
F6
F6
F6
76
36
36
36
36
36
36
36
36
36
ENDCHAR

STARTCHAR char183
ENCODING 183
SWIDTH 15 0
DWIDTH 3 0
BBX 2 1 1 5
BITMAP
C0
ENDCHAR

STARTCHAR char184
ENCODING 184
SWIDTH 0 0
DWIDTH 0 0
BBX 2 2 -1 -3
BITMAP
C0
C0
ENDCHAR

STARTCHAR char186
ENCODING 186
SWIDTH 0 0
DWIDTH 0 0
BBX 6 2 -3 14
BITMAP
04
7C
ENDCHAR

STARTCHAR char187
ENCODING 187
SWIDTH 35 0
DWIDTH 7 0
BBX 6 6 0 2
BITMAP
90
48
24
24
48
90
ENDCHAR

STARTCHAR char188
ENCODING 188
SWIDTH 39 0
DWIDTH 18 0
BBX 0 0 0 0
BITMAP
ENDCHAR

STARTCHAR char191
ENCODING 191
SWIDTH 40 0
DWIDTH 8 0
BBX 6 12 0 0
BITMAP
10
00
00
30
30
20
60
C0
C4
C4
CC
70
ENDCHAR

STARTCHAR char192
ENCODING 192
SWIDTH 45 0
DWIDTH 9 0
BBX 9 16 0 0
BITMAP
6000
1000
0000
1800
1800
1C00
3400
2400
2600
6600
6200
7E00
C300
C100
8100
8180
ENDCHAR

STARTCHAR char193
ENCODING 193
SWIDTH 45 0
DWIDTH 9 0
BBX 9 16 0 0
BITMAP
0E00
0800
0000
1800
1800
1C00
3400
2400
2600
6600
6200
7E00
C300
C100
8100
8180
ENDCHAR

STARTCHAR char194
ENCODING 194
SWIDTH 45 0
DWIDTH 9 0
BBX 9 16 0 0
BITMAP
3800
2400
0000
1800
1800
1C00
3400
2400
2600
6600
6200
7E00
C300
C100
8100
8180
ENDCHAR

STARTCHAR char195
ENCODING 195
SWIDTH 45 0
DWIDTH 9 0
BBX 9 16 0 0
BITMAP
0200
7C00
0000
1800
1800
1C00
3400
2400
2600
6600
6200
7E00
C300
C100
8100
8180
ENDCHAR

STARTCHAR char196
ENCODING 196
SWIDTH 45 0
DWIDTH 9 0
BBX 9 15 0 0
BITMAP
3600
0000
0800
1800
1C00
1400
2400
2600
2600
4200
7E00
4100
C100
C100
8180
ENDCHAR

STARTCHAR char197
ENCODING 197
SWIDTH 45 0
DWIDTH 9 0
BBX 9 16 0 0
BITMAP
3C00
3C00
3C00
0800
1800
1800
1800
2C00
2C00
2400
6200
7E00
C200
C100
8100
8180
ENDCHAR

STARTCHAR char198
ENCODING 198
SWIDTH 19 0
DWIDTH 14 0
BBX 14 12 -1 0
BITMAP
07FC
0D80
0980
0980
1980
11F8
1180
3F80
2180
6180
4180
41FC
ENDCHAR

STARTCHAR char199
ENCODING 199
SWIDTH 45 0
DWIDTH 9 0
BBX 8 15 0 -3
BITMAP
3C
62
43
C0
C0
C0
C0
C1
C3
C3
62
3C
00
18
18
ENDCHAR

STARTCHAR char200
ENCODING 200
SWIDTH 40 0
DWIDTH 8 0
BBX 8 16 0 0
BITMAP
60
10
00
00
7F
40
40
40
40
7E
60
60
60
60
60
7F
ENDCHAR

STARTCHAR char201
ENCODING 201
SWIDTH 40 0
DWIDTH 8 0
BBX 8 16 0 0
BITMAP
0C
18
00
00
FE
C0
C0
C0
C0
FE
C0
C0
C0
C0
C0
FF
ENDCHAR

STARTCHAR char202
ENCODING 202
SWIDTH 40 0
DWIDTH 8 0
BBX 8 16 0 0
BITMAP
38
6C
00
00
FE
C0
C0
C0
C0
FE
C0
C0
C0
C0
C0
FF
ENDCHAR

STARTCHAR char203
ENCODING 203
SWIDTH 40 0
DWIDTH 8 0
BBX 8 16 0 0
BITMAP
60
6C
00
00
FE
C0
C0
C0
C0
FE
C0
C0
C0
C0
C0
FF
ENDCHAR

STARTCHAR char204
ENCODING 204
SWIDTH 15 0
DWIDTH 3 0
BBX 4 16 -2 0
BITMAP
E0
30
00
30
30
30
30
30
30
30
30
30
30
30
30
30
ENDCHAR

STARTCHAR char205
ENCODING 205
SWIDTH 15 0
DWIDTH 3 0
BBX 4 16 1 0
BITMAP
60
C0
00
C0
C0
C0
C0
C0
C0
C0
C0
C0
C0
C0
C0
C0
ENDCHAR

STARTCHAR char206
ENCODING 206
SWIDTH 15 0
DWIDTH 3 0
BBX 5 16 -1 0
BITMAP
70
D8
00
30
30
30
30
30
30
30
30
30
30
30
30
30
ENDCHAR

STARTCHAR char207
ENCODING 207
SWIDTH 15 0
DWIDTH 3 0
BBX 5 16 -1 0
BITMAP
C0
C8
00
30
30
30
30
30
30
30
30
30
30
30
30
30
ENDCHAR

STARTCHAR char208
ENCODING 208
SWIDTH 39 0
DWIDTH 18 0
BBX 0 0 0 0
BITMAP
ENDCHAR

STARTCHAR char209
ENCODING 209
SWIDTH 45 0
DWIDTH 9 0
BBX 8 16 0 0
BITMAP
02
7E
00
C0
E3
E3
E3
D3
D3
CB
CB
CB
C7
C7
C7
C3
ENDCHAR

STARTCHAR char210
ENCODING 210
SWIDTH 45 0
DWIDTH 9 0
BBX 8 16 0 0
BITMAP
70
10
00
00
7E
42
C3
C3
C3
C3
C3
C3
C3
C3
62
3C
ENDCHAR

STARTCHAR char211
ENCODING 211
SWIDTH 45 0
DWIDTH 9 0
BBX 8 16 0 0
BITMAP
0E
08
00
00
7E
42
C3
C3
C3
C3
C3
C3
C3
C3
62
3C
ENDCHAR

STARTCHAR char212
ENCODING 212
SWIDTH 45 0
DWIDTH 9 0
BBX 8 16 0 0
BITMAP
38
24
00
00
7E
42
C3
C3
C3
C3
C3
C3
C3
C3
62
3C
ENDCHAR

STARTCHAR char213
ENCODING 213
SWIDTH 45 0
DWIDTH 9 0
BBX 8 16 0 0
BITMAP
02
7C
00
00
7E
42
C3
C3
C3
C3
C3
C3
C3
C3
62
3C
ENDCHAR

STARTCHAR char214
ENCODING 214
SWIDTH 45 0
DWIDTH 9 0
BBX 8 15 0 0
BITMAP
36
00
00
7E
42
C3
C3
C3
C3
C3
C3
C3
C3
62
3C
ENDCHAR

STARTCHAR char215
ENCODING 215
SWIDTH 39 0
DWIDTH 18 0
BBX 0 0 0 0
BITMAP
ENDCHAR

STARTCHAR char216
ENCODING 216
SWIDTH 45 0
DWIDTH 9 0
BBX 9 13 0 0
BITMAP
0080
3F80
6300
C380
C580
C580
C980
D180
D180
E180
C380
6300
BE00
ENDCHAR

STARTCHAR char217
ENCODING 217
SWIDTH 45 0
DWIDTH 9 0
BBX 8 16 0 0
BITMAP
60
10
00
C0
C3
C3
C3
C3
C3
C3
C3
C3
C3
C3
66
3E
ENDCHAR

STARTCHAR char218
ENCODING 218
SWIDTH 45 0
DWIDTH 9 0
BBX 8 16 0 0
BITMAP
0E
18
00
C0
C3
C3
C3
C3
C3
C3
C3
C3
C3
C3
66
3E
ENDCHAR

STARTCHAR char219
ENCODING 219
SWIDTH 45 0
DWIDTH 9 0
BBX 8 16 0 0
BITMAP
38
64
00
C0
C3
C3
C3
C3
C3
C3
C3
C3
C3
C3
66
3E
ENDCHAR

STARTCHAR char220
ENCODING 220
SWIDTH 45 0
DWIDTH 9 0
BBX 8 15 0 0
BITMAP
34
00
C0
C3
C3
C3
C3
C3
C3
C3
C3
C3
C3
66
3C
ENDCHAR

STARTCHAR char221
ENCODING 221
SWIDTH 39 0
DWIDTH 18 0
BBX 0 0 0 0
BITMAP
ENDCHAR

STARTCHAR char223
ENCODING 223
SWIDTH 40 0
DWIDTH 8 0
BBX 7 12 0 0
BITMAP
7C
C6
C6
C6
DC
DC
C6
C6
C6
C6
C6
DC
ENDCHAR

STARTCHAR char224
ENCODING 224
SWIDTH 40 0
DWIDTH 8 0
BBX 7 13 0 0
BITMAP
60
20
30
00
78
CC
0C
0C
74
CC
CC
CC
76
ENDCHAR

STARTCHAR char225
ENCODING 225
SWIDTH 40 0
DWIDTH 8 0
BBX 7 13 0 0
BITMAP
0C
18
10
00
78
CC
0C
0C
74
CC
CC
CC
76
ENDCHAR

STARTCHAR char226
ENCODING 226
SWIDTH 40 0
DWIDTH 8 0
BBX 7 12 0 0
BITMAP
30
48
00
78
CC
0C
0C
74
CC
CC
CC
76
ENDCHAR

STARTCHAR char227
ENCODING 227
SWIDTH 40 0
DWIDTH 8 0
BBX 7 12 0 0
BITMAP
7C
00
00
78
CC
0C
0C
74
CC
CC
CC
76
ENDCHAR

STARTCHAR char228
ENCODING 228
SWIDTH 40 0
DWIDTH 8 0
BBX 7 13 0 0
BITMAP
20
6C
00
00
7C
C4
04
0C
74
C4
AC
CC
76
ENDCHAR

STARTCHAR char229
ENCODING 229
SWIDTH 40 0
DWIDTH 8 0
BBX 7 13 0 0
BITMAP
78
6C
38
00
7C
C6
06
0E
72
C6
C6
CE
7A
ENDCHAR

STARTCHAR char230
ENCODING 230
SWIDTH 4 0
DWIDTH 11 0
BBX 10 9 0 0
BITMAP
7380
CCC0
0C40
3FC0
6C00
CC00
CC40
CCC0
7380
ENDCHAR

STARTCHAR char231
ENCODING 231
SWIDTH 35 0
DWIDTH 7 0
BBX 6 12 0 -3
BITMAP
38
44
C4
C0
C0
C0
C4
C4
78
00
30
30
ENDCHAR

STARTCHAR char232
ENCODING 232
SWIDTH 35 0
DWIDTH 7 0
BBX 6 13 0 0
BITMAP
E0
60
30
00
78
C4
C4
FC
C0
C0
C4
E4
78
ENDCHAR

STARTCHAR char233
ENCODING 233
SWIDTH 35 0
DWIDTH 7 0
BBX 6 12 0 0
BITMAP
1C
10
00
78
C4
C4
FC
C0
C0
C4
E4
78
ENDCHAR

STARTCHAR char234
ENCODING 234
SWIDTH 35 0
DWIDTH 7 0
BBX 6 13 0 0
BITMAP
30
38
48
00
78
C4
C4
FC
C0
C0
C4
E4
78
ENDCHAR

STARTCHAR char235
ENCODING 235
SWIDTH 35 0
DWIDTH 7 0
BBX 6 12 0 0
BITMAP
4C
00
00
78
C4
C4
FC
C0
C0
C4
E4
78
ENDCHAR

STARTCHAR char236
ENCODING 236
SWIDTH 15 0
DWIDTH 3 0
BBX 4 12 -1 0
BITMAP
60
30
00
30
30
30
30
30
30
30
30
30
ENDCHAR

STARTCHAR char237
ENCODING 237
SWIDTH 15 0
DWIDTH 3 0
BBX 3 12 1 0
BITMAP
60
C0
00
C0
C0
C0
C0
C0
C0
C0
C0
C0
ENDCHAR

STARTCHAR char238
ENCODING 238
SWIDTH 15 0
DWIDTH 3 0
BBX 5 12 -1 0
BITMAP
70
D8
00
30
30
30
30
30
30
30
30
30
ENDCHAR

STARTCHAR char239
ENCODING 239
SWIDTH 15 0
DWIDTH 3 0
BBX 5 12 -1 0
BITMAP
C8
00
00
30
30
30
30
30
30
30
30
30
ENDCHAR

STARTCHAR char241
ENCODING 241
SWIDTH 40 0
DWIDTH 8 0
BBX 7 12 0 0
BITMAP
7C
00
00
FC
C6
C6
C6
C6
C6
C6
C6
C6
ENDCHAR

STARTCHAR char242
ENCODING 242
SWIDTH 40 0
DWIDTH 8 0
BBX 7 13 0 0
BITMAP
60
20
30
00
38
44
C6
C6
C6
C6
C6
4C
3C
ENDCHAR

STARTCHAR char243
ENCODING 243
SWIDTH 40 0
DWIDTH 8 0
BBX 7 13 0 0
BITMAP
0C
18
10
00
38
44
C6
C6
C6
C6
C6
4C
3C
ENDCHAR

STARTCHAR char244
ENCODING 244
SWIDTH 40 0
DWIDTH 8 0
BBX 7 13 0 0
BITMAP
10
38
48
00
38
44
C6
C6
C6
C6
C6
4C
3C
ENDCHAR

STARTCHAR char245
ENCODING 245
SWIDTH 40 0
DWIDTH 8 0
BBX 7 12 0 0
BITMAP
7C
00
00
38
44
C6
C6
C6
C6
C6
4C
3C
ENDCHAR

STARTCHAR char246
ENCODING 246
SWIDTH 40 0
DWIDTH 8 0
BBX 7 13 0 0
BITMAP
20
68
00
00
38
4C
C6
C6
C6
C6
C6
44
7C
ENDCHAR

STARTCHAR char247
ENCODING 247
SWIDTH 45 0
DWIDTH 9 0
BBX 9 5 0 2
BITMAP
1800
0000
FF80
0000
1800
ENDCHAR

STARTCHAR char248
ENCODING 248
SWIDTH 40 0
DWIDTH 8 0
BBX 7 11 0 -1
BITMAP
02
7E
E6
CE
CE
D6
E6
E6
CC
F8
80
ENDCHAR

STARTCHAR char249
ENCODING 249
SWIDTH 40 0
DWIDTH 8 0
BBX 7 12 0 0
BITMAP
60
30
00
C6
C6
C6
C6
C6
C6
C6
C6
7E
ENDCHAR

STARTCHAR char250
ENCODING 250
SWIDTH 40 0
DWIDTH 8 0
BBX 7 12 0 0
BITMAP
0C
10
00
C6
C6
C6
C6
C6
C6
C6
C6
7E
ENDCHAR

STARTCHAR char251
ENCODING 251
SWIDTH 40 0
DWIDTH 8 0
BBX 7 12 0 0
BITMAP
38
6C
00
C6
C6
C6
C6
C6
C6
C6
C6
7E
ENDCHAR

STARTCHAR char252
ENCODING 252
SWIDTH 40 0
DWIDTH 8 0
BBX 7 12 0 0
BITMAP
6C
00
00
C6
C6
C6
C6
C6
C6
C6
CE
7E
ENDCHAR

STARTCHAR char255
ENCODING 255
SWIDTH 40 0
DWIDTH 8 0
BBX 7 15 0 -3
BITMAP
6C
00
00
C6
C4
64
64
6C
28
28
38
10
10
30
E0
ENDCHAR
ENDFONT
